<svg width="674" height="184" viewBox="0 0 674 184" fill="none" xmlns="http://www.w3.org/2000/svg">
<path d="M106.562 52.2344C106.562 50.8906 106.422 49.7031 106.141 48.6719C105.891 47.6094 105.391 46.6406 104.641 45.7656C103.891 44.8906 102.812 44.0312 101.406 43.1875C100 42.3125 98.1875 41.4219 95.9688 40.5156C93.3438 39.4531 90.8594 38.3281 88.5156 37.1406C86.1719 35.9219 84.0781 34.5156 82.2344 32.9219C80.3906 31.3281 78.9375 29.4531 77.875 27.2969C76.8438 25.1406 76.3281 22.625 76.3281 19.75C76.3281 16.9375 76.8281 14.375 77.8281 12.0625C78.8594 9.71875 80.3125 7.71875 82.1875 6.0625C84.0625 4.375 86.2812 3.07812 88.8438 2.17188C91.4375 1.26563 94.2969 0.8125 97.4219 0.8125C101.828 0.8125 105.609 1.73438 108.766 3.57812C111.922 5.42187 114.359 7.92188 116.078 11.0781C117.797 14.2344 118.656 17.7969 118.656 21.7656H106.141C106.141 19.7031 105.828 17.875 105.203 16.2812C104.609 14.6562 103.656 13.3906 102.344 12.4844C101.031 11.5781 99.3438 11.125 97.2812 11.125C95.3438 11.125 93.75 11.5156 92.5 12.2969C91.25 13.0469 90.3281 14.0781 89.7344 15.3906C89.1406 16.6719 88.8438 18.1406 88.8438 19.7969C88.8438 20.9844 89.1094 22.0625 89.6406 23.0312C90.2031 23.9688 90.9688 24.8281 91.9375 25.6094C92.9062 26.3906 94.0781 27.1406 95.4531 27.8594C96.8594 28.5469 98.4219 29.2188 100.141 29.875C103.297 31.0625 106.062 32.375 108.438 33.8125C110.812 35.2188 112.781 36.8125 114.344 38.5938C115.938 40.3438 117.125 42.3281 117.906 44.5469C118.688 46.7656 119.078 49.2969 119.078 52.1406C119.078 54.9531 118.594 57.5156 117.625 59.8281C116.656 62.1406 115.25 64.125 113.406 65.7812C111.562 67.4375 109.328 68.7188 106.703 69.625C104.109 70.5 101.219 70.9375 98.0312 70.9375C94.9688 70.9375 92.0469 70.5 89.2656 69.625C86.5156 68.7188 84.0781 67.3594 81.9531 65.5469C79.8281 63.7344 78.1562 61.4531 76.9375 58.7031C75.7188 55.9219 75.1094 52.6562 75.1094 48.9062H87.625C87.625 51 87.8594 52.8125 88.3281 54.3438C88.7969 55.8438 89.5 57.0625 90.4375 58C91.375 58.9062 92.5 59.5781 93.8125 60.0156C95.125 60.4219 96.6094 60.625 98.2656 60.625C100.234 60.625 101.828 60.2656 103.047 59.5469C104.266 58.8281 105.156 57.8438 105.719 56.5938C106.281 55.3125 106.562 53.8594 106.562 52.2344ZM166.469 29.7812V40.2344H138.109V29.7812H166.469ZM141.391 1.75V70H128.828V1.75H141.391ZM175.891 1.75V70H163.422V1.75H175.891ZM212.875 12.5312L197.266 70H184.047L205.562 1.75H213.812L212.875 12.5312ZM225.203 70L209.594 12.5312L208.516 1.75H216.859L238.469 70H225.203ZM225.625 44.5938V55.0469H194.312V44.5938H225.625ZM245.688 1.75H266.922C271.453 1.75 275.312 2.53125 278.5 4.09375C281.688 5.65625 284.109 7.96875 285.766 11.0312C287.453 14.0938 288.297 17.8594 288.297 22.3281C288.297 25.8906 287.781 28.9844 286.75 31.6094C285.75 34.2031 284.312 36.375 282.438 38.125C280.594 39.875 278.359 41.2344 275.734 42.2031L271.938 44.3594H254.359L254.312 33.9062H266.641C268.672 33.9062 270.359 33.4531 271.703 32.5469C273.078 31.6406 274.094 30.3906 274.75 28.7969C275.438 27.1719 275.781 25.3125 275.781 23.2188C275.781 20.9375 275.469 18.9844 274.844 17.3594C274.25 15.7031 273.297 14.4375 271.984 13.5625C270.703 12.6875 269.016 12.25 266.922 12.25H258.25V70H245.688V1.75ZM277.094 70L264.297 39.4375H277.469L290.5 69.3438V70H277.094ZM336.906 59.5469V70H307.281V59.5469H336.906ZM310.891 1.75V70H298.328V1.75H310.891ZM332.922 29.7812V39.9531H307.281V29.7812H332.922ZM336.719 1.75V12.25H307.281V1.75H336.719ZM400.938 114.75H422.172C426.703 114.75 430.562 115.531 433.75 117.094C436.938 118.656 439.359 120.969 441.016 124.031C442.703 127.094 443.547 130.859 443.547 135.328C443.547 138.891 443.031 141.984 442 144.609C441 147.203 439.562 149.375 437.688 151.125C435.844 152.875 433.609 154.234 430.984 155.203L427.188 157.359H409.609L409.562 146.906H421.891C423.922 146.906 425.609 146.453 426.953 145.547C428.328 144.641 429.344 143.391 430 141.797C430.688 140.172 431.031 138.312 431.031 136.219C431.031 133.938 430.719 131.984 430.094 130.359C429.5 128.703 428.547 127.438 427.234 126.562C425.953 125.688 424.266 125.25 422.172 125.25H413.5V183H400.938V114.75ZM432.344 183L419.547 152.438H432.719L445.75 182.344V183H432.344ZM492.156 172.547V183H462.531V172.547H492.156ZM466.141 114.75V183H453.578V114.75H466.141ZM488.172 142.781V152.953H462.531V142.781H488.172ZM491.969 114.75V125.25H462.531V114.75H491.969ZM533.734 160.5H546.25C546.031 165.531 545 169.797 543.156 173.297C541.344 176.766 538.734 179.406 535.328 181.219C531.953 183.031 527.844 183.938 523 183.938C519.312 183.938 516.016 183.297 513.109 182.016C510.203 180.703 507.734 178.812 505.703 176.344C503.703 173.875 502.172 170.844 501.109 167.25C500.078 163.625 499.562 159.484 499.562 154.828V142.969C499.562 138.312 500.109 134.172 501.203 130.547C502.297 126.922 503.859 123.859 505.891 121.359C507.953 118.859 510.453 116.969 513.391 115.688C516.328 114.406 519.641 113.766 523.328 113.766C528.203 113.766 532.281 114.688 535.562 116.531C538.844 118.375 541.375 121.078 543.156 124.641C544.938 128.172 545.984 132.484 546.297 137.578H533.781C533.656 134.266 533.25 131.641 532.562 129.703C531.875 127.734 530.797 126.328 529.328 125.484C527.859 124.641 525.859 124.219 523.328 124.219C521.359 124.219 519.656 124.578 518.219 125.297C516.781 126.016 515.609 127.141 514.703 128.672C513.797 130.172 513.125 132.094 512.688 134.438C512.25 136.781 512.031 139.594 512.031 142.875V154.828C512.031 157.984 512.219 160.734 512.594 163.078C512.969 165.422 513.562 167.375 514.375 168.938C515.219 170.469 516.344 171.625 517.75 172.406C519.156 173.156 520.906 173.531 523 173.531C525.531 173.531 527.547 173.156 529.047 172.406C530.547 171.625 531.656 170.297 532.375 168.422C533.125 166.516 533.578 163.875 533.734 160.5ZM568.516 114.75V183H556.047V114.75H568.516ZM603.906 158.344H589.703V147.844H603.906C606.062 147.844 607.797 147.391 609.109 146.484C610.453 145.547 611.422 144.25 612.016 142.594C612.641 140.938 612.953 139.062 612.953 136.969C612.953 134.938 612.641 133.031 612.016 131.25C611.422 129.438 610.453 127.984 609.109 126.891C607.797 125.797 606.062 125.25 603.906 125.25H593.547V183H580.984V114.75H603.906C608.438 114.75 612.312 115.703 615.531 117.609C618.781 119.516 621.281 122.141 623.031 125.484C624.781 128.797 625.656 132.594 625.656 136.875C625.656 141.312 624.781 145.125 623.031 148.312C621.281 151.5 618.781 153.969 615.531 155.719C612.312 157.469 608.438 158.344 603.906 158.344ZM673.844 172.547V183H644.219V172.547H673.844ZM647.828 114.75V183H635.266V114.75H647.828ZM669.859 142.781V152.953H644.219V142.781H669.859ZM673.656 114.75V125.25H644.219V114.75H673.656Z" fill="#FF8264"/>
<path d="M376.375 1.75L387.578 33.2969L398.734 1.75H412.516L393.906 45.0625V70H381.25V45.0625L362.641 1.75H376.375ZM465.156 30.4375V41.9219C465.156 46.7344 464.594 50.9531 463.469 54.5781C462.344 58.2031 460.719 61.2344 458.594 63.6719C456.469 66.0781 453.922 67.8906 450.953 69.1094C447.984 70.3281 444.703 70.9375 441.109 70.9375C437.484 70.9375 434.188 70.3281 431.219 69.1094C428.25 67.8906 425.688 66.0781 423.531 63.6719C421.406 61.2344 419.75 58.2031 418.562 54.5781C417.406 50.9531 416.828 46.7344 416.828 41.9219V30.4375C416.828 25.5312 417.406 21.2344 418.562 17.5469C419.719 13.8594 421.359 10.7813 423.484 8.3125C425.641 5.84375 428.203 3.98438 431.172 2.73438C434.141 1.45313 437.422 0.8125 441.016 0.8125C444.641 0.8125 447.922 1.45313 450.859 2.73438C453.828 3.98438 456.375 5.84375 458.5 8.3125C460.656 10.7813 462.297 13.8594 463.422 17.5469C464.578 21.2344 465.156 25.5312 465.156 30.4375ZM452.688 41.9219V30.3438C452.688 27 452.438 24.125 451.938 21.7188C451.438 19.3125 450.688 17.3594 449.688 15.8594C448.688 14.3281 447.453 13.2031 445.984 12.4844C444.547 11.7656 442.891 11.4062 441.016 11.4062C439.109 11.4062 437.422 11.7656 435.953 12.4844C434.516 13.2031 433.297 14.3281 432.297 15.8594C431.328 17.3594 430.594 19.3125 430.094 21.7188C429.594 24.125 429.344 27 429.344 30.3438V41.9219C429.344 45.2031 429.594 48.0156 430.094 50.3594C430.594 52.7031 431.344 54.6094 432.344 56.0781C433.375 57.5469 434.609 58.6406 436.047 59.3594C437.516 60.0469 439.203 60.3906 441.109 60.3906C442.984 60.3906 444.641 60.0469 446.078 59.3594C447.547 58.6406 448.766 57.5469 449.734 56.0781C450.734 54.6094 451.469 52.7031 451.938 50.3594C452.438 48.0156 452.688 45.2031 452.688 41.9219ZM506.969 1.75H519.531V48.9062C519.531 54.125 518.562 58.3594 516.625 61.6094C514.688 64.8594 512.047 67.2344 508.703 68.7344C505.359 70.2031 501.594 70.9375 497.406 70.9375C493.125 70.9375 489.312 70.2031 485.969 68.7344C482.625 67.2344 480 64.8594 478.094 61.6094C476.219 58.3594 475.281 54.125 475.281 48.9062V1.75H487.797V48.9062C487.797 52 488.172 54.3906 488.922 56.0781C489.703 57.7656 490.797 58.9219 492.203 59.5469C493.609 60.1719 495.344 60.4844 497.406 60.4844C499.469 60.4844 501.203 60.1719 502.609 59.5469C504.016 58.9219 505.094 57.7656 505.844 56.0781C506.594 54.3906 506.969 52 506.969 48.9062V1.75ZM530.688 1.75H551.922C556.453 1.75 560.312 2.53125 563.5 4.09375C566.688 5.65625 569.109 7.96875 570.766 11.0312C572.453 14.0938 573.297 17.8594 573.297 22.3281C573.297 25.8906 572.781 28.9844 571.75 31.6094C570.75 34.2031 569.312 36.375 567.438 38.125C565.594 39.875 563.359 41.2344 560.734 42.2031L556.938 44.3594H539.359L539.312 33.9062H551.641C553.672 33.9062 555.359 33.4531 556.703 32.5469C558.078 31.6406 559.094 30.3906 559.75 28.7969C560.438 27.1719 560.781 25.3125 560.781 23.2188C560.781 20.9375 560.469 18.9844 559.844 17.3594C559.25 15.7031 558.297 14.4375 556.984 13.5625C555.703 12.6875 554.016 12.25 551.922 12.25H543.25V70H530.688V1.75ZM562.094 70L549.297 39.4375H562.469L575.5 69.3438V70H562.094ZM12.9531 114.75V183H0.390625V114.75H12.9531ZM34.7031 144.141V154.594H9.90625V144.141H34.7031ZM37.6094 114.75V125.25H9.90625V114.75H37.6094ZM61.6562 125.531L46.0469 183H32.8281L54.3438 114.75H62.5938L61.6562 125.531ZM73.9844 183L58.375 125.531L57.2969 114.75H65.6406L87.25 183H73.9844ZM74.4062 157.594V168.047H43.0938V157.594H74.4062ZM111.344 169.359L125.078 114.75H138.625L118.562 183H109.328L111.344 169.359ZM99.4375 114.75L113.125 169.359L115.234 183H105.953L85.9844 114.75H99.4375ZM192.25 143.438V154.922C192.25 159.734 191.688 163.953 190.562 167.578C189.438 171.203 187.812 174.234 185.688 176.672C183.562 179.078 181.016 180.891 178.047 182.109C175.078 183.328 171.797 183.938 168.203 183.938C164.578 183.938 161.281 183.328 158.312 182.109C155.344 180.891 152.781 179.078 150.625 176.672C148.5 174.234 146.844 171.203 145.656 167.578C144.5 163.953 143.922 159.734 143.922 154.922V143.438C143.922 138.531 144.5 134.234 145.656 130.547C146.812 126.859 148.453 123.781 150.578 121.312C152.734 118.844 155.297 116.984 158.266 115.734C161.234 114.453 164.516 113.812 168.109 113.812C171.734 113.812 175.016 114.453 177.953 115.734C180.922 116.984 183.469 118.844 185.594 121.312C187.75 123.781 189.391 126.859 190.516 130.547C191.672 134.234 192.25 138.531 192.25 143.438ZM179.781 154.922V143.344C179.781 140 179.531 137.125 179.031 134.719C178.531 132.312 177.781 130.359 176.781 128.859C175.781 127.328 174.547 126.203 173.078 125.484C171.641 124.766 169.984 124.406 168.109 124.406C166.203 124.406 164.516 124.766 163.047 125.484C161.609 126.203 160.391 127.328 159.391 128.859C158.422 130.359 157.688 132.312 157.188 134.719C156.688 137.125 156.438 140 156.438 143.344V154.922C156.438 158.203 156.688 161.016 157.188 163.359C157.688 165.703 158.438 167.609 159.438 169.078C160.469 170.547 161.703 171.641 163.141 172.359C164.609 173.047 166.297 173.391 168.203 173.391C170.078 173.391 171.734 173.047 173.172 172.359C174.641 171.641 175.859 170.547 176.828 169.078C177.828 167.609 178.562 165.703 179.031 163.359C179.531 161.016 179.781 158.203 179.781 154.922ZM203.125 114.75H224.359C228.891 114.75 232.75 115.531 235.938 117.094C239.125 118.656 241.547 120.969 243.203 124.031C244.891 127.094 245.734 130.859 245.734 135.328C245.734 138.891 245.219 141.984 244.188 144.609C243.188 147.203 241.75 149.375 239.875 151.125C238.031 152.875 235.797 154.234 233.172 155.203L229.375 157.359H211.797L211.75 146.906H224.078C226.109 146.906 227.797 146.453 229.141 145.547C230.516 144.641 231.531 143.391 232.188 141.797C232.875 140.172 233.219 138.312 233.219 136.219C233.219 133.938 232.906 131.984 232.281 130.359C231.688 128.703 230.734 127.438 229.422 126.562C228.141 125.688 226.453 125.25 224.359 125.25H215.688V183H203.125V114.75ZM234.531 183L221.734 152.438H234.906L247.938 182.344V183H234.531ZM268.797 114.75V183H256.328V114.75H268.797ZM305.828 114.75V183H293.359V114.75H305.828ZM323.031 114.75V125.25H276.438V114.75H323.031ZM370.094 172.547V183H340.469V172.547H370.094ZM344.078 114.75V183H331.516V114.75H344.078ZM366.109 142.781V152.953H340.469V142.781H366.109ZM369.906 114.75V125.25H340.469V114.75H369.906Z" fill="black"/>
</svg>
