<svg width="526" height="662" viewBox="0 0 526 662" fill="none" xmlns="http://www.w3.org/2000/svg">
<path d="M244.406 213.289V222H220.773V213.289H244.406ZM223.781 165.125V222H213.312V165.125H223.781ZM283.664 213.289V222H258.977V213.289H283.664ZM261.984 165.125V222H251.516V165.125H261.984ZM280.344 188.484V196.961H258.977V188.484H280.344ZM283.508 165.125V173.875H258.977V165.125H283.508ZM313.312 165.125V222H302.922V165.125H313.312ZM327.648 165.125V173.875H288.82V165.125H327.648ZM132.375 307.289V316H107.688V307.289H132.375ZM110.695 259.125V316H100.227V259.125H110.695ZM129.055 282.484V290.961H107.688V282.484H129.055ZM132.219 259.125V267.875H107.688V259.125H132.219ZM156.828 304.633L168.273 259.125H179.562L162.844 316H155.148L156.828 304.633ZM146.906 259.125L158.312 304.633L160.07 316H152.336L135.695 259.125H146.906ZM217.688 307.289V316H193V307.289H217.688ZM196.008 259.125V316H185.539V259.125H196.008ZM214.367 282.484V290.961H193V282.484H214.367ZM217.531 259.125V267.875H193V259.125H217.531ZM224.953 259.125H242.648C246.424 259.125 249.641 259.776 252.297 261.078C254.953 262.38 256.971 264.307 258.352 266.859C259.758 269.411 260.461 272.549 260.461 276.273C260.461 279.242 260.031 281.82 259.172 284.008C258.339 286.169 257.141 287.979 255.578 289.438C254.042 290.896 252.18 292.029 249.992 292.836L246.828 294.633H232.18L232.141 285.922H242.414C244.107 285.922 245.513 285.544 246.633 284.789C247.779 284.034 248.625 282.992 249.172 281.664C249.745 280.31 250.031 278.76 250.031 277.016C250.031 275.115 249.771 273.487 249.25 272.133C248.755 270.753 247.961 269.698 246.867 268.969C245.799 268.24 244.393 267.875 242.648 267.875H235.422V316H224.953V259.125ZM251.125 316L240.461 290.531H251.438L262.297 315.453V316H251.125ZM274.172 259.125L283.508 285.414L292.805 259.125H304.289L288.781 295.219V316H278.234V295.219L262.727 259.125H274.172ZM348.156 283.031V292.602C348.156 296.612 347.688 300.128 346.75 303.148C345.812 306.169 344.458 308.695 342.688 310.727C340.917 312.732 338.794 314.242 336.32 315.258C333.846 316.273 331.112 316.781 328.117 316.781C325.096 316.781 322.349 316.273 319.875 315.258C317.401 314.242 315.266 312.732 313.469 310.727C311.698 308.695 310.318 306.169 309.328 303.148C308.365 300.128 307.883 296.612 307.883 292.602V283.031C307.883 278.943 308.365 275.362 309.328 272.289C310.292 269.216 311.659 266.651 313.43 264.594C315.227 262.536 317.362 260.987 319.836 259.945C322.31 258.878 325.044 258.344 328.039 258.344C331.06 258.344 333.794 258.878 336.242 259.945C338.716 260.987 340.839 262.536 342.609 264.594C344.406 266.651 345.773 269.216 346.711 272.289C347.674 275.362 348.156 278.943 348.156 283.031ZM337.766 292.602V282.953C337.766 280.167 337.557 277.771 337.141 275.766C336.724 273.76 336.099 272.133 335.266 270.883C334.432 269.607 333.404 268.669 332.18 268.07C330.982 267.471 329.602 267.172 328.039 267.172C326.451 267.172 325.044 267.471 323.82 268.07C322.622 268.669 321.607 269.607 320.773 270.883C319.966 272.133 319.354 273.76 318.938 275.766C318.521 277.771 318.312 280.167 318.312 282.953V292.602C318.312 295.336 318.521 297.68 318.938 299.633C319.354 301.586 319.979 303.174 320.812 304.398C321.672 305.622 322.701 306.534 323.898 307.133C325.122 307.706 326.529 307.992 328.117 307.992C329.68 307.992 331.06 307.706 332.258 307.133C333.482 306.534 334.497 305.622 335.305 304.398C336.138 303.174 336.75 301.586 337.141 299.633C337.557 297.68 337.766 295.336 337.766 292.602ZM396.359 259.125V316H386.164L367.18 278.539V316H357.18V259.125H367.219L386.359 296.938V259.125H396.359ZM438.469 307.289V316H413.781V307.289H438.469ZM416.789 259.125V316H406.32V259.125H416.789ZM435.148 282.484V290.961H413.781V282.484H435.148ZM438.312 259.125V267.875H413.781V259.125H438.312ZM83.4688 353.125V410H73V353.125H83.4688ZM111.789 353.125L93.0781 380.977L81.75 395L79.7969 384.297L87.3359 372.383L99.0938 353.125H111.789ZM99.9531 410L86.5547 383.516L94.0156 376.406L112.336 410H99.9531ZM156.32 353.125V410H146.125L127.141 372.539V410H117.141V353.125H127.18L146.32 390.938V353.125H156.32ZM205.539 377.031V386.602C205.539 390.612 205.07 394.128 204.133 397.148C203.195 400.169 201.841 402.695 200.07 404.727C198.299 406.732 196.177 408.242 193.703 409.258C191.229 410.273 188.495 410.781 185.5 410.781C182.479 410.781 179.732 410.273 177.258 409.258C174.784 408.242 172.648 406.732 170.852 404.727C169.081 402.695 167.701 400.169 166.711 397.148C165.747 394.128 165.266 390.612 165.266 386.602V377.031C165.266 372.943 165.747 369.362 166.711 366.289C167.674 363.216 169.042 360.651 170.812 358.594C172.609 356.536 174.745 354.987 177.219 353.945C179.693 352.878 182.427 352.344 185.422 352.344C188.443 352.344 191.177 352.878 193.625 353.945C196.099 354.987 198.221 356.536 199.992 358.594C201.789 360.651 203.156 363.216 204.094 366.289C205.057 369.362 205.539 372.943 205.539 377.031ZM195.148 386.602V376.953C195.148 374.167 194.94 371.771 194.523 369.766C194.107 367.76 193.482 366.133 192.648 364.883C191.815 363.607 190.786 362.669 189.562 362.07C188.365 361.471 186.984 361.172 185.422 361.172C183.833 361.172 182.427 361.471 181.203 362.07C180.005 362.669 178.99 363.607 178.156 364.883C177.349 366.133 176.737 367.76 176.32 369.766C175.904 371.771 175.695 374.167 175.695 376.953V386.602C175.695 389.336 175.904 391.68 176.32 393.633C176.737 395.586 177.362 397.174 178.195 398.398C179.055 399.622 180.083 400.534 181.281 401.133C182.505 401.706 183.911 401.992 185.5 401.992C187.062 401.992 188.443 401.706 189.641 401.133C190.865 400.534 191.88 399.622 192.688 398.398C193.521 397.174 194.133 395.586 194.523 393.633C194.94 391.68 195.148 389.336 195.148 386.602ZM226.438 399.492L235.5 353.125H241.32L242.141 362.461L232.297 410H226.086L226.438 399.492ZM221.984 353.125L229.25 399.414L228.781 410H222.062L211.594 353.125H221.984ZM250.461 399.219L257.688 353.125H268.039L257.609 410H250.891L250.461 399.219ZM244.211 353.125L253.312 399.688L253.508 410H247.336L237.648 362.383L238.469 353.125H244.211ZM300.461 353.125L309.797 379.414L319.094 353.125H330.578L315.07 389.219V410H304.523V389.219L289.016 353.125H300.461ZM374.445 377.031V386.602C374.445 390.612 373.977 394.128 373.039 397.148C372.102 400.169 370.747 402.695 368.977 404.727C367.206 406.732 365.083 408.242 362.609 409.258C360.135 410.273 357.401 410.781 354.406 410.781C351.385 410.781 348.638 410.273 346.164 409.258C343.69 408.242 341.555 406.732 339.758 404.727C337.987 402.695 336.607 400.169 335.617 397.148C334.654 394.128 334.172 390.612 334.172 386.602V377.031C334.172 372.943 334.654 369.362 335.617 366.289C336.581 363.216 337.948 360.651 339.719 358.594C341.516 356.536 343.651 354.987 346.125 353.945C348.599 352.878 351.333 352.344 354.328 352.344C357.349 352.344 360.083 352.878 362.531 353.945C365.005 354.987 367.128 356.536 368.898 358.594C370.695 360.651 372.062 363.216 373 366.289C373.964 369.362 374.445 372.943 374.445 377.031ZM364.055 386.602V376.953C364.055 374.167 363.846 371.771 363.43 369.766C363.013 367.76 362.388 366.133 361.555 364.883C360.721 363.607 359.693 362.669 358.469 362.07C357.271 361.471 355.891 361.172 354.328 361.172C352.74 361.172 351.333 361.471 350.109 362.07C348.911 362.669 347.896 363.607 347.062 364.883C346.255 366.133 345.643 367.76 345.227 369.766C344.81 371.771 344.602 374.167 344.602 376.953V386.602C344.602 389.336 344.81 391.68 345.227 393.633C345.643 395.586 346.268 397.174 347.102 398.398C347.961 399.622 348.99 400.534 350.188 401.133C351.411 401.706 352.818 401.992 354.406 401.992C355.969 401.992 357.349 401.706 358.547 401.133C359.771 400.534 360.786 399.622 361.594 398.398C362.427 397.174 363.039 395.586 363.43 393.633C363.846 391.68 364.055 389.336 364.055 386.602ZM409.289 353.125H419.758V392.422C419.758 396.771 418.951 400.299 417.336 403.008C415.721 405.716 413.521 407.695 410.734 408.945C407.948 410.169 404.81 410.781 401.32 410.781C397.753 410.781 394.576 410.169 391.789 408.945C389.003 407.695 386.815 405.716 385.227 403.008C383.664 400.299 382.883 396.771 382.883 392.422V353.125H393.312V392.422C393.312 395 393.625 396.992 394.25 398.398C394.901 399.805 395.812 400.768 396.984 401.289C398.156 401.81 399.602 402.07 401.32 402.07C403.039 402.07 404.484 401.81 405.656 401.289C406.828 400.768 407.727 399.805 408.352 398.398C408.977 396.992 409.289 395 409.289 392.422V353.125ZM429.055 353.125H446.75C450.526 353.125 453.742 353.776 456.398 355.078C459.055 356.38 461.073 358.307 462.453 360.859C463.859 363.411 464.562 366.549 464.562 370.273C464.562 373.242 464.133 375.82 463.273 378.008C462.44 380.169 461.242 381.979 459.68 383.438C458.143 384.896 456.281 386.029 454.094 386.836L450.93 388.633H436.281L436.242 379.922H446.516C448.208 379.922 449.615 379.544 450.734 378.789C451.88 378.034 452.727 376.992 453.273 375.664C453.846 374.31 454.133 372.76 454.133 371.016C454.133 369.115 453.872 367.487 453.352 366.133C452.857 364.753 452.062 363.698 450.969 362.969C449.901 362.24 448.495 361.875 446.75 361.875H439.523V410H429.055V353.125ZM455.227 410L444.562 384.531H455.539L466.398 409.453V410H455.227ZM178.625 447.125V504H168.234V447.125H178.625ZM192.961 447.125V455.875H154.133V447.125H192.961ZM215.773 456.109L202.766 504H191.75L209.68 447.125H216.555L215.773 456.109ZM226.047 504L213.039 456.109L212.141 447.125H219.094L237.102 504H226.047ZM226.398 482.828V491.539H200.305V482.828H226.398ZM267.336 489.195C267.336 488.076 267.219 487.086 266.984 486.227C266.776 485.341 266.359 484.534 265.734 483.805C265.109 483.076 264.211 482.359 263.039 481.656C261.867 480.927 260.357 480.185 258.508 479.43C256.32 478.544 254.25 477.607 252.297 476.617C250.344 475.602 248.599 474.43 247.062 473.102C245.526 471.773 244.315 470.211 243.43 468.414C242.57 466.617 242.141 464.521 242.141 462.125C242.141 459.781 242.557 457.646 243.391 455.719C244.25 453.766 245.461 452.099 247.023 450.719C248.586 449.312 250.435 448.232 252.57 447.477C254.732 446.721 257.115 446.344 259.719 446.344C263.391 446.344 266.542 447.112 269.172 448.648C271.802 450.185 273.833 452.268 275.266 454.898C276.698 457.529 277.414 460.497 277.414 463.805H266.984C266.984 462.086 266.724 460.562 266.203 459.234C265.708 457.88 264.914 456.826 263.82 456.07C262.727 455.315 261.32 454.938 259.602 454.938C257.987 454.938 256.659 455.263 255.617 455.914C254.576 456.539 253.807 457.398 253.312 458.492C252.818 459.56 252.57 460.784 252.57 462.164C252.57 463.154 252.792 464.052 253.234 464.859C253.703 465.641 254.341 466.357 255.148 467.008C255.956 467.659 256.932 468.284 258.078 468.883C259.25 469.456 260.552 470.016 261.984 470.562C264.615 471.552 266.919 472.646 268.898 473.844C270.878 475.016 272.518 476.344 273.82 477.828C275.148 479.286 276.138 480.94 276.789 482.789C277.44 484.638 277.766 486.747 277.766 489.117C277.766 491.461 277.362 493.596 276.555 495.523C275.747 497.451 274.576 499.104 273.039 500.484C271.503 501.865 269.641 502.932 267.453 503.688C265.292 504.417 262.883 504.781 260.227 504.781C257.674 504.781 255.24 504.417 252.922 503.688C250.63 502.932 248.599 501.799 246.828 500.289C245.057 498.779 243.664 496.878 242.648 494.586C241.633 492.268 241.125 489.547 241.125 486.422H251.555C251.555 488.167 251.75 489.677 252.141 490.953C252.531 492.203 253.117 493.219 253.898 494C254.68 494.755 255.617 495.315 256.711 495.68C257.805 496.018 259.042 496.188 260.422 496.188C262.062 496.188 263.391 495.888 264.406 495.289C265.422 494.69 266.164 493.87 266.633 492.828C267.102 491.76 267.336 490.549 267.336 489.195ZM307.531 447.125V504H297.141V447.125H307.531ZM321.867 447.125V455.875H283.039V447.125H321.867ZM361.086 495.289V504H336.398V495.289H361.086ZM339.406 447.125V504H328.938V447.125H339.406ZM357.766 470.484V478.961H336.398V470.484H357.766ZM360.93 447.125V455.875H336.398V447.125H360.93ZM379.172 447.125L378.078 486.852H369.68L368.547 447.125H379.172ZM368.391 499.039C368.391 497.477 368.885 496.161 369.875 495.094C370.865 494.026 372.193 493.492 373.859 493.492C375.604 493.492 376.958 494.026 377.922 495.094C378.911 496.161 379.406 497.477 379.406 499.039C379.406 500.602 378.911 501.93 377.922 503.023C376.958 504.091 375.604 504.625 373.859 504.625C372.193 504.625 370.865 504.091 369.875 503.023C368.885 501.93 368.391 500.602 368.391 499.039Z" fill="#FF8264"/>
</svg>
