<svg width="1440" height="1024" viewBox="0 0 1440 1024" fill="none" xmlns="http://www.w3.org/2000/svg">
<g clip-path="url(#clip0_8_231)">
<rect width="1440" height="1024" fill="white"/>
<g style="mix-blend-mode:difference">
<g style="mix-blend-mode:difference" filter="url(#filter0_d_8_231)">
<path d="M2319 512.5C2319 869.552 1998.88 1159 1604 1159C1209.12 1159 889 869.552 889 512.5C889 155.448 1209.12 -134 1604 -134C1998.88 -134 2319 155.448 2319 512.5Z" fill="white"/>
<path d="M2318.5 512.5C2318.5 869.23 1998.66 1158.5 1604 1158.5C1209.34 1158.5 889.5 869.23 889.5 512.5C889.5 155.77 1209.34 -133.5 1604 -133.5C1998.66 -133.5 2318.5 155.77 2318.5 512.5Z" stroke="black"/>
</g>
</g>
</g>
<defs>
<filter id="filter0_d_8_231" x="885" y="-134" width="1438" height="1301" filterUnits="userSpaceOnUse" color-interpolation-filters="sRGB">
<feFlood flood-opacity="0" result="BackgroundImageFix"/>
<feColorMatrix in="SourceAlpha" type="matrix" values="0 0 0 0 0 0 0 0 0 0 0 0 0 0 0 0 0 0 127 0" result="hardAlpha"/>
<feOffset dy="4"/>
<feGaussianBlur stdDeviation="2"/>
<feComposite in2="hardAlpha" operator="out"/>
<feColorMatrix type="matrix" values="0 0 0 0 0 0 0 0 0 0 0 0 0 0 0 0 0 0 0.25 0"/>
<feBlend mode="normal" in2="BackgroundImageFix" result="effect1_dropShadow_8_231"/>
<feBlend mode="normal" in="SourceGraphic" in2="effect1_dropShadow_8_231" result="shape"/>
</filter>
<clipPath id="clip0_8_231">
<rect width="1440" height="1024" fill="white"/>
</clipPath>
</defs>
</svg>
